<?xml version="1.0" encoding="utf-8"?>
<!-- Generator: Adobe Illustrator 23.0.3, SVG Export Plug-In . SVG Version: 6.00 Build 0)  -->
<svg version="1.1" id="Layer_1" xmlns="http://www.w3.org/2000/svg" xmlns:xlink="http://www.w3.org/1999/xlink" x="0px" y="0px"
	 viewBox="0 0 67.4 53.3" style="enable-background:new 0 0 67.4 53.3;" xml:space="preserve">
<style type="text/css">
	.st0{fill:#666666;}
	.st1{fill:#FFCC33;}
</style>
<title>features-icon-4</title>
<path class="st0" d="M16.5,29.3h50.9v21.3c0,1.5-1.3,2.7-2.8,2.7H19.3c-1.5,0-2.8-1.2-2.8-2.7L16.5,29.3L16.5,29.3z M16.5,2.7
	c0-1.5,1.3-2.7,2.8-2.7h45.3c1.5,0,2.8,1.2,2.8,2.7V24H16.5C16.5,24,16.5,2.7,16.5,2.7z M33.5,8v5.3h17V8H33.5z M33.5,37.3v5.3h17
	v-5.3H33.5z"/>
<path class="st1" d="M22,16.3c-5.8-4.6-14.3-3.7-19,2.1C-1.6,24-0.9,32.3,4.7,37c0.1,0.1,0.2,0.2,0.3,0.2v11.5
	c0,0.2,0.1,0.3,0.2,0.4c0.3,0.4,0.8,0.5,1.2,0.3l7.1-4.3l7.1,4.3c0.1,0.1,0.3,0.1,0.5,0.1c0.5,0,0.9-0.4,0.9-0.8V37.2
	c0-0.6,1.4-1.3,2.1-2.1C28.7,29.4,27.8,20.9,22,16.3z M13.6,30.8c-2.2,0-4.1-1.8-4.1-4.1s1.8-4.1,4.1-4.1s4.1,1.8,4.1,4.1l0,0
	C17.7,29,15.9,30.8,13.6,30.8z"/>
</svg>
