<?xml version="1.0" encoding="utf-8"?>
<!-- Generator: Adobe Illustrator 23.0.3, SVG Export Plug-In . SVG Version: 6.00 Build 0)  -->
<svg version="1.1" id="Layer_1" xmlns="http://www.w3.org/2000/svg" xmlns:xlink="http://www.w3.org/1999/xlink" x="0px" y="0px"
	 viewBox="0 0 58.6 55.6" style="enable-background:new 0 0 58.6 55.6;" xml:space="preserve">
<style type="text/css">
	.st0{fill:#666666;}
	.st1{fill:#FFCC33;}
</style>
<title>features-icon-6</title>
<path class="st0" d="M30.8,55.6C15.5,55.6,3,43.1,3,27.8S15.5,0,30.8,0s27.8,12.4,27.8,27.8C58.6,43.1,46.2,55.6,30.8,55.6
	C30.8,55.6,30.8,55.6,30.8,55.6z M33.6,27.8V13.9H28v19.4h16.7v-5.6H33.6z"/>
<path class="st1" d="M8.6,32.2h9.8c4.8-0.1,8.6,3.8,8.7,8.5s-3.8,8.6-8.5,8.7c-0.1,0-0.1,0-0.2,0H8.6c-4.8-0.1-8.6-3.9-8.5-8.7
	C0.1,36,3.9,32.2,8.6,32.2z M18.4,44.5c2,0,3.7-1.7,3.7-3.7c0-2-1.7-3.7-3.7-3.7c-2,0-3.7,1.6-3.7,3.7
	C14.8,42.8,16.4,44.5,18.4,44.5C18.4,44.5,18.4,44.5,18.4,44.5L18.4,44.5z"/>
</svg>
