<?xml version="1.0" encoding="utf-8"?>
<!-- Generator: Adobe Illustrator 23.0.3, SVG Export Plug-In . SVG Version: 6.00 Build 0)  -->
<svg version="1.1" id="Layer_1" xmlns="http://www.w3.org/2000/svg" xmlns:xlink="http://www.w3.org/1999/xlink" x="0px" y="0px"
	 viewBox="0 0 91.3 41.6" style="enable-background:new 0 0 91.3 41.6;" xml:space="preserve">
<style type="text/css">
	.st0{fill:#FFCC33;}
</style>
<title>logo</title>
<path class="st0" d="M19,22.3c-0.9-0.4-2,0.1-2.4,1c-1.4,3.4-5.3,5.1-8.7,3.7s-5.1-5.3-3.7-8.7s5.3-5.1,8.7-3.7
	c1.5,0.6,2.8,1.8,3.5,3.3c0.4,0.9,1.6,1.3,2.5,0.8c0.9-0.4,1.3-1.6,0.8-2.5l0,0c-1.7-3.6-5.3-5.8-9.3-5.8c1.8-1,3.9-1.7,5.9-2h0.2
	c1-0.1,1.7-1.1,1.6-2.1S17,4.6,16,4.8l0,0h-0.2c-2.9,0.4-5.7,1.5-8.2,3C8.3,6.4,9.1,5,9.9,3.7l0.5-0.9c0.5-0.9,0.2-2-0.7-2.5
	C8.9-0.3,7.7,0,7.2,0.9L6.7,1.8c-1.1,1.9-2.1,3.9-3,5.9V4.5c-0.1-1-1-1.8-2-1.7C0.8,2.9,0.1,3.6,0,4.5v16.6c0,0.1,0,0.1,0,0.2
	c0.1,2.6,1.2,5,3.1,6.9c-0.9-0.6-1.7-1.3-2.4-2.1v0.3C1.5,31.7,4,36.6,7.9,40.2c0.3,0.3,0.6,0.5,0.9,0.8c0.1,0.1,0.2,0.2,0.3,0.3
	c0.3,0.2,0.6,0.3,1,0.3c0.4,0,0.7-0.1,1-0.3l0.4-0.3l0.9-0.8c3.8-3.5,6.3-8.2,7.1-13.3c-0.7,0.6-1.4,1.1-2.2,1.6
	c1.2-1.1,2.1-2.4,2.7-3.8C20.3,23.8,19.9,22.7,19,22.3z"/>
<path class="st0" d="M44.3,7.4c-0.4-0.9-1-1.7-1.8-2.4c-0.7-0.5-1.5-0.9-2.4-1.1c-0.8-0.2-1.7-0.2-2.5-0.1C36.8,4,36,4.3,35.4,4.7
	c-1,0.6-1.8,1.4-2.4,2.3c-0.4,0.7-0.8,1.3-1.2,2c-0.4,0.7-0.7,1.4-1,2.1c-0.1,0.1-0.1,0.3-0.2,0.4L30.4,12c0,0-0.1,0-0.3,0
	c0.1-0.6,0.1-1.2,0.2-1.9s0.1-1.2,0.1-1.9c0-0.4,0.1-0.7,0.1-1c0-0.3,0-0.7,0-1c0-0.4-0.2-0.7-0.6-0.8c-0.4-0.1-0.8-0.1-1.2,0
	c-0.4,0.1-0.8,0.3-1,0.6c-0.2,0.2-0.3,0.4-0.5,0.6c-0.1,0.2-0.3,0.4-0.4,0.7c-0.2,0.4-0.4,0.8-0.5,1.2l-0.4,1.3
	c-0.4,1.5-0.7,3-0.9,4.5c-0.2,1.5-0.3,3-0.4,4.5c-0.1,1-0.1,2-0.1,3.1s0,2.1,0,3.1c0,1.5,0.1,3,0.3,4.5s0.4,2.9,0.7,4.4
	c0.1,0.9,0.3,1.8,0.6,2.7c0.1,0.2,0.2,0.5,0.3,0.7c0.1,0.2,0.3,0.4,0.5,0.5c1,0.6,2.2,0.6,3.2,0.1c0.5-0.2,0.7-0.6,0.7-1.1V36
	c0-0.3,0-0.5-0.1-0.8c-0.1-0.6-0.2-1.3-0.2-1.9s-0.2-1.3-0.2-1.9c0-0.1,0-0.1,0-0.2c0-0.1,0-0.1,0-0.2c0-0.1,0-0.1,0-0.2
	c0-0.1,0.1-0.1,0.2-0.2c0.1,0.2,0.3,0.4,0.4,0.6c0.1,0.2,0.3,0.4,0.4,0.5c0.8,1,1.7,1.9,2.7,2.7c1,0.8,2.1,1.5,3.2,2.1
	c0.9,0.4,1.8,0.7,2.8,0.8c0.9,0.1,1.9,0.1,2.9,0c0.2,0,0.3-0.1,0.5-0.1c0.2-0.1,0.3-0.2,0.5-0.2c0.1-0.1,0.2-0.2,0.2-0.3
	c0-0.1-0.1-0.3-0.2-0.3c-0.2-0.1-0.3-0.2-0.5-0.3l-0.6,0l-0.5-0.1c-0.7-0.1-1.4-0.3-1.9-0.7c-0.4-0.2-0.8-0.5-1.1-0.8
	c-0.4-0.3-0.7-0.6-1.1-0.9c-0.8-0.8-1.5-1.6-2.1-2.5c-0.6-0.9-1.2-1.8-1.8-2.8c-0.2-0.4-0.5-0.8-0.7-1.1s-0.5-0.7-0.7-1
	c0-0.1-0.1-0.2-0.1-0.2c0-0.1-0.1-0.2-0.2-0.3l0.6-0.1c0.2,0,0.4,0,0.6-0.1c1.9-0.3,3.7-1,5.2-2c1.2-0.8,2.3-1.8,3.2-2.9
	c0.9-1.1,1.7-2.3,2.4-3.6c0.4-0.7,0.6-1.5,0.8-2.4c0.2-0.8,0.2-1.6,0.2-2.5c0-0.8-0.1-1.6-0.3-2.4C44.9,8.9,44.6,8.1,44.3,7.4z
	 M34,22c-0.5,0.4-1,0.7-1.6,0.9c-0.6,0.2-1.1,0.4-1.7,0.6c-0.1,0.1-0.3,0.1-0.4,0.1c-0.1,0-0.1,0-0.2,0c0-0.2,0-0.4,0-0.6
	c0.1-0.2,0.1-0.4,0.1-0.6c0.2-1.2,0.4-2.5,0.6-3.7s0.5-2.5,0.8-3.7c0.3-0.9,0.5-1.7,0.8-2.6c0.3-0.8,0.6-1.7,1-2.5
	c0.5-1,1.1-2,1.9-2.9c0.6-0.7,1.4-1.3,2.3-1.7c0.1-0.1,0.3-0.1,0.5-0.1c0.2,0.1,0.3,0.2,0.4,0.3c0.9,1,1.4,2.3,1.5,3.6
	C40.4,14.3,38.1,19.1,34,22z"/>
<path class="st0" d="M66.7,35.6c0.2,0.5,0.4,1,0.7,1.4c0.1,0.2,0.2,0.4,0.4,0.5c0.1,0.2,0.3,0.4,0.5,0.5c0.5,0.5,1.2,0.6,1.9,0.5
	c0.2-0.1,0.3-0.2,0.5-0.3c0-0.1,0-0.2,0-0.3c0-0.1,0-0.2,0-0.3c-0.1-0.3-0.1-0.6-0.2-0.9c-0.1-0.3-0.1-0.6-0.2-0.9
	c-0.2-1.7-0.4-3.3-0.5-5s-0.1-3.6-0.2-5.4s-0.2-3.7-0.2-5.5c0-1.6-0.1-3.2-0.1-4.8s-0.1-3.2-0.1-4.8c0-0.3,0-0.6,0-0.9
	s0.1-0.6,0.1-1c0.2,0,0.3-0.1,0.5-0.1c0.1,0,0.3,0,0.4,0c0.8,0,1.7-0.1,2.5-0.1l2.5-0.1l1.1-0.1c0.4,0,0.7-0.1,1.1-0.1
	c0.5,0,1-0.2,1.4-0.6c0.3-0.3,0.3-0.5,0-0.7c-0.2-0.1-0.4-0.2-0.6-0.3c-0.5-0.1-1-0.1-1.5-0.2l-3.2,0.1l-3.2,0.1c-0.1,0-0.2,0-0.4,0
	l-0.4-0.1V5.5c0-0.5-0.3-0.9-0.8-1c-0.7-0.2-1.3-0.2-2,0c-0.7,0.2-1.3,0.9-1.3,1.6v0.5c0,0.2-0.1,0.3-0.2,0.5l-0.5,0.1L64,7.3
	c-0.6,0.1-1.3,0.2-1.9,0.3s-1.3,0.2-1.9,0.4c-0.3,0.1-0.6,0.1-0.9,0.3l-0.9,0.3c-0.1,0-0.2,0.1-0.3,0.2l-0.3,0.2
	c-0.1,0.1-0.1,0.2-0.1,0.3c0,0.1,0.1,0.2,0.2,0.3c0.3,0.1,0.7,0.2,1,0.1l1.3-0.2l1.3-0.2c0.6-0.1,1.2-0.1,1.8-0.2S64.3,9,65,8.9v0.8
	c0,1.6-0.1,3.1-0.1,4.6s-0.1,3-0.1,4.5c0,0.9,0,1.8,0,2.7l0.1,2.2c0,0-0.1,0.1-0.1,0.1c-0.2,0.3-0.3,0.5-0.5,0.7l-0.6,1.2
	c-0.2,0.4-0.4,0.8-0.7,1.2c-0.1,0.2-0.2,0.3-0.3,0.5c-0.1,0.2-0.3,0.3-0.6,0.4c0-0.1-0.1-0.2-0.1-0.3c0-0.7,0-1.3,0-1.9
	c0-0.6,0-1.2,0.1-1.9c0.1-0.7,0.1-1.4,0.1-2.1s0-1.4,0-2.2c0-0.2-0.1-0.5-0.1-0.7c0-0.2-0.1-0.4-0.3-0.6c-0.2-0.4-0.6-0.7-1.1-0.7
	c-0.6-0.1-1.1,0-1.7,0.2c-0.5,0.3-0.8,0.7-1,1.2c-0.1,0.3-0.2,0.6-0.3,0.7c-0.1,0.3-0.1,0.6-0.2,0.9c0,0.3-0.1,0.6-0.1,0.9
	c0,0.6-0.1,1.2-0.3,1.7c-0.1,0.3-0.2,0.6-0.3,0.8s-0.2,0.5-0.3,0.8c-0.3,0.7-0.6,1.4-0.9,2.1c-0.3,0.7-0.7,1.4-1.2,2
	c-0.1,0.2-0.2,0.3-0.3,0.5c-0.2,0.2-0.4,0.4-0.6,0.5c0-0.1,0-0.2,0-0.3c0-0.1,0-0.1,0-0.2c0-0.3-0.1-0.7-0.1-1s0-0.7,0-1.1
	c0-1.1,0.1-2.3,0.1-3.4s0.1-2.3,0.1-3.4c0-0.4,0-0.8,0-1.2v-1.2c0-0.2,0-0.4,0-0.6s0-0.4-0.1-0.6c0-0.6-0.5-1-1.1-1c0,0,0,0,0,0
	c-0.6-0.1-1.1-0.1-1.7,0.1c-0.7,0.1-1.4,0.6-1.7,1.3c-0.3,0.5-0.6,1.1-0.7,1.7c-0.2,0.9-0.3,1.8-0.4,2.7c-0.1,0.9-0.1,1.8,0,2.7
	c0,1.7,0.4,3.4,1.2,5c0.2,0.3,0.3,0.6,0.6,0.9c0.3,0.4,0.7,0.8,1.2,1c0.5,0.2,1,0.4,1.5,0.4c0.5,0,1-0.1,1.5-0.3
	c0.5-0.2,0.9-0.5,1.2-0.9l0.5-0.7l0.4-0.7c0.2-0.5,0.5-0.9,0.7-1.3s0.4-0.9,0.6-1.3c0.1-0.1,0.1-0.2,0.2-0.3
	c0.1-0.1,0.1-0.3,0.2-0.4c0.1,0.3,0.1,0.5,0.2,0.8c0.1,0.4,0.2,0.8,0.4,1.2c0.2,0.4,0.4,0.8,0.7,1.1c0.1,0.2,0.3,0.4,0.5,0.5
	c0.2,0.2,0.4,0.3,0.6,0.3c0.5,0.2,1,0.2,1.5,0.1c0.5-0.1,1-0.3,1.3-0.7c0.4-0.3,0.7-0.7,0.9-1.1l0.9-1.6L65,26l0,0
	c0,0.6,0.1,1.1,0.1,1.7c0.1,2.2,0.4,4.3,1,6.4C66.3,34.7,66.5,35.2,66.7,35.6z"/>
<path class="st0" d="M87,33.9c0.8,0,1.5-0.5,1.8-1.3c0.1-0.3,0.3-0.6,0.4-1c0.1-0.3,0.2-0.7,0.3-1c0.3-1.1,0.5-2.2,0.8-3.2
	c0.2-1.1,0.5-2.1,0.9-3.1c0.1-0.3,0.1-0.7,0.1-1c0-0.1-0.1-0.2-0.3-0.2c-0.1,0-0.2,0-0.3,0c-0.1,0.1-0.2,0.2-0.3,0.3
	c-0.1,0.2-0.1,0.4-0.2,0.6c-0.1,0.2-0.1,0.4-0.2,0.6c-0.3,1.1-0.7,2.3-1.1,3.4s-0.9,2.2-1.4,3.3l-0.1,0.2c0,0.1-0.1,0.2-0.2,0.2
	l-0.1-0.2c0,0-0.1-0.1-0.1-0.2c-0.1-0.4-0.2-0.8-0.3-1.1c-0.1-0.4-0.2-0.8-0.2-1.1c-0.1-1.5-0.2-3-0.2-4.6c0-1.1,0-2.3,0-3.4
	c0.1-1.1,0.1-2.3,0-3.4c0-0.2-0.1-0.4-0.1-0.6c0-0.2-0.1-0.4-0.1-0.6c-0.1-0.5-0.5-0.8-1-0.8c-0.6-0.1-1.2,0.1-1.6,0.6
	c-0.2,0.3-0.4,0.6-0.6,0.8s-0.4,0.6-0.7,0.9c-0.4-0.3-0.9-0.5-1.4-0.7c-0.5-0.2-1-0.3-1.5-0.4c-0.8-0.1-1.5,0-2.3,0.1
	c-0.7,0.2-1.4,0.5-2,0.9c-0.8,0.6-1.4,1.4-1.8,2.3c-0.4,0.8-0.6,1.7-0.7,2.7c-0.3,1.6,0,3.2,0.7,4.7c0.2,0.4,0.4,0.7,0.7,1
	c0.3,0.3,0.6,0.5,1,0.7c1.1,0.5,2.2,0.6,3.4,0.3c1.2-0.4,2.2-1.2,2.7-2.3l0.2-0.4c0.1-0.2,0.2-0.3,0.3-0.5c0.1,0.1,0.1,0.3,0.1,0.4
	c0,0.1,0,0.2,0.1,0.3c0.1,0.4,0.1,0.7,0.2,1l0.2,1c0.2,0.6,0.4,1.2,0.7,1.8c0.3,0.6,0.6,1.1,0.9,1.6C84.5,33.6,85.8,34.1,87,33.9z
	 M81.8,20.9c-0.1,0.4-0.1,0.9-0.2,1.3c0,0.2,0,0.4-0.1,0.6c-0.2,0.5-0.5,0.9-0.7,1.3c-0.2,0.4-0.5,0.9-0.7,1.3
	c-0.4,0.9-1.1,1.6-1.9,2.1c-0.2,0-0.3,0.1-0.5,0.2c-0.2-0.2-0.3-0.5-0.4-0.7c-0.1-0.2-0.1-0.5-0.2-0.7c-0.1-1.1-0.1-2.2,0.1-3.3
	c0.2-1.1,0.5-2.2,1-3.1c0.1-0.2,0.2-0.3,0.3-0.5c0.1-0.2,0.3-0.4,0.4-0.5c0.1-0.1,0.3-0.2,0.5-0.1c0.4,0.1,0.9,0.2,1.3,0.3
	c0.4,0.1,0.8,0.4,1.1,0.7C81.9,20.1,81.8,20.6,81.8,20.9L81.8,20.9z"/>
</svg>
